<?xml version="1.0" standalone="no"?>
<!DOCTYPE svg PUBLIC "-//W3C//DTD SVG 20010904//EN"
 "http://www.w3.org/TR/2001/REC-SVG-20010904/DTD/svg10.dtd">
<svg version="1.0" xmlns="http://www.w3.org/2000/svg"
 width="320.000000pt" height="320.000000pt" viewBox="0 0 320.000000 320.000000"
 preserveAspectRatio="xMidYMid meet">
<metadata>
Created by potrace 1.14, written by Peter Selinger 2001-2017
</metadata>
<g transform="translate(0.000000,320.000000) scale(0.100000,-0.100000)"
fill="#000000" stroke="none">
<path d="M603 3122 c-27 -2 -44 -9 -49 -20 -4 -9 -8 -82 -10 -162 -1 -80 -3
-148 -3 -152 -1 -4 -18 -6 -38 -4 -49 4 -83 -12 -84 -38 -7 -112 -2 -412 7
-424 7 -9 31 -16 60 -18 27 -1 51 -3 54 -3 3 -1 5 -498 5 -1106 0 -892 2
-1106 13 -1117 10 -10 180 -13 865 -13 l852 -1 84 81 c47 44 108 103 137 130
28 28 75 72 103 98 28 27 52 54 52 60 1 7 2 607 3 1335 1 1201 0 1324 -14
1337 -14 13 -159 15 -1006 17 -544 2 -1008 2 -1031 0z m77 -107 c0 7 319 10
937 9 l938 0 0 -1270 0 -1269 -50 -2 c-27 -1 -101 -2 -162 -2 l-112 -1 -14
-27 c-8 -19 -12 -70 -11 -160 l1 -132 -781 2 -781 2 -1 82 c-1 44 -4 88 -7 96
-3 8 -3 18 0 21 7 6 8 94 2 101 -3 2 -2 31 1 65 3 33 2 60 -3 60 -4 0 -5 5 -2
11 9 13 9 815 0 828 -3 5 -1 12 5 16 6 4 8 10 6 14 -5 7 -7 70 -5 141 0 19 0
46 0 60 -1 14 -1 41 0 60 0 19 0 46 0 60 -1 14 0 39 1 55 2 17 0 42 -4 57 -3
15 -3 30 0 32 4 2 6 19 5 38 -3 47 -3 77 -3 128 0 25 0 56 0 70 0 14 1 44 3
68 1 23 -2 43 -7 45 -5 2 -2 9 6 17 12 13 93 15 547 14 479 0 535 1 553 16 18
15 20 27 20 119 -1 56 -4 106 -7 111 -3 5 -1 11 5 15 6 4 8 11 5 16 -3 5 -6
47 -6 93 0 65 -4 87 -16 98 -13 10 -124 13 -557 13 l-541 0 -2 115 c-2 80 1
116 9 121 7 5 16 3 20 -4 4 -7 8 -7 8 -2z"/>
<path d="M1156 2062 c-12 -3 -16 -11 -14 -30 l3 -27 585 0 c512 0 585 2 587
15 8 46 18 45 -580 45 -310 0 -571 -2 -581 -3z"/>
<path d="M857 1643 c-12 -11 -8 -51 6 -55 6 -2 333 -4 726 -4 655 1 715 2 724
18 8 12 7 21 -2 32 -12 14 -88 16 -731 16 -394 0 -720 -3 -723 -7z"/>
<path d="M853 1184 c-3 -9 -2 -24 4 -33 9 -14 78 -16 724 -17 424 0 719 4 727
9 17 13 15 44 -4 51 -9 3 -337 6 -730 6 -652 0 -715 -1 -721 -16z"/>
<path d="M900 750 c-46 -5 -65 -29 -42 -52 11 -11 1407 -14 1442 -3 23 7 27
43 6 51 -17 7 -1347 11 -1406 4z"/>
</g>
</svg>
